<svg width="40" height="40" viewBox="0 0 40 40" fill="none" xmlns="http://www.w3.org/2000/svg">
<g id="apple">
<path id="bg" d="M37.0394 20.0877C37.0394 29.4401 29.366 37.0305 19.892 37.0305C10.4181 37.0305 2.74469 29.4401 2.74469 20.0877C2.74469 10.7268 10.4181 3.1449 19.892 3.1449C29.366 3.1449 37.0394 10.7268 37.0394 20.0877Z" fill="#283544"/>
<path id="apple_2" d="M27.9294 15.8005C27.8358 15.8544 25.6083 16.9926 25.6083 19.5163C25.7133 22.3945 28.4193 23.4038 28.4657 23.4038C28.4193 23.4578 28.0572 24.7788 26.9845 26.1636C26.1332 27.3565 25.1884 28.5591 23.7536 28.5591C22.3888 28.5591 21.8989 27.7641 20.3241 27.7641C18.633 27.7641 18.1545 28.5591 16.8596 28.5591C15.4249 28.5591 14.41 27.292 13.5123 26.1104C12.3461 24.5638 11.3548 22.1367 11.3198 19.8063C11.2963 18.5714 11.5534 17.3576 12.2061 16.3265C13.1274 14.8871 14.7721 13.9099 16.5683 13.8777C17.9445 13.835 19.1693 14.7477 20.0092 14.7477C20.814 14.7477 22.3188 13.8777 24.0214 13.8777C24.7563 13.8784 26.716 14.0823 27.9294 15.8005ZM19.8928 13.6312C19.6478 12.5034 20.3241 11.3757 20.954 10.6564C21.7589 9.7864 23.0301 9.19592 24.1264 9.19592C24.1964 10.3236 23.7528 11.4297 22.9601 12.2352C22.2488 13.1051 21.024 13.76 19.8928 13.6312Z" fill="white"/>
</g>
</svg>
