<svg width="60" height="60" viewBox="0 0 60 60" fill="none" xmlns="http://www.w3.org/2000/svg">
<g clip-path="url(#clip0_178_574)">
<path d="M30.0308 0.000488281C13.4654 0.000488281 0.03442 13.4315 0.03442 29.9968C0.03442 40.1999 5.13072 49.2123 12.9154 54.631C14.4384 49.327 18.2971 45.3368 23.5455 43.5269C23.7118 43.4698 23.879 43.415 24.0469 43.3624C24.1269 43.3372 24.206 43.3114 24.2866 43.2872C24.5352 43.2125 24.7853 43.1429 25.0367 43.0785L25.0516 43.0751C25.3026 43.0118 25.5548 42.9536 25.8081 42.9005C25.8892 42.8834 25.971 42.8681 26.0522 42.8519C26.3278 42.7971 26.6044 42.748 26.882 42.7048C27.0707 42.6756 27.2598 42.6492 27.4493 42.6254C27.5328 42.6149 27.6158 42.6032 27.6997 42.5937C27.9734 42.5618 28.2477 42.5353 28.5224 42.5143H29.6087C29.7195 42.5209 29.8301 42.5209 29.9409 42.5143H30.0308C22.2309 42.5143 15.908 36.1914 15.908 28.3916C15.908 28.3173 15.9124 28.2441 15.9136 28.1704C15.8367 19.242 24.2055 13.8631 30.0447 14.2617C36.0371 13.8535 44.6935 19.4998 44.1882 28.8136C44.1733 28.8229 44.1572 28.83 44.1423 28.839C43.9053 36.4313 37.6805 42.5143 30.0308 42.5143H31.5528C31.8296 42.5351 32.1033 42.5624 32.3752 42.5937C32.4594 42.6032 32.5427 42.6149 32.6261 42.6254C32.9083 42.6612 33.1896 42.7027 33.47 42.7499C33.6548 42.7812 33.8379 42.8153 34.02 42.8515C34.1028 42.8678 34.1863 42.8834 34.2683 42.9008C34.5153 42.9526 34.7612 43.0094 35.006 43.0709C35.0223 43.0751 35.0392 43.079 35.0555 43.0834C35.2996 43.146 35.5424 43.2135 35.7837 43.286C35.8699 43.3116 35.9544 43.3394 36.0395 43.366C36.2009 43.4168 36.3613 43.4691 36.5204 43.5237C41.7708 45.3314 45.6316 49.3199 47.1573 54.623C54.9352 49.2032 60.0266 40.195 60.0266 29.9968C60.0271 13.4312 46.5964 0.000488281 30.0308 0.000488281Z" fill="#FE8585"/>
<path d="M44.1426 28.839C40.0015 31.368 31.472 26.9857 30.0447 20.9459C28.6193 27.0074 20.0459 31.4017 15.9287 28.8134C15.9188 28.5991 15.9138 28.3846 15.9136 28.1701C15.9124 28.2441 15.908 28.3173 15.908 28.3913C15.908 36.1911 22.2309 42.5141 30.0308 42.5141C37.6805 42.5143 43.9055 36.4313 44.1426 28.839Z" fill="#FCE9EA"/>
<path d="M36.5209 43.5238C36.5746 43.5423 36.6279 43.5616 36.6811 43.5804C36.5218 44.0323 36.3167 44.4666 36.0688 44.8766C37.0792 46.4187 36.8266 53.1713 35.3104 52.1047L32.6672 50.2502L30.0308 48.3957L30.2038 48.2737C30.1462 48.2751 30.0889 48.2781 30.0308 48.2781C29.9702 48.2781 29.9107 48.2749 29.8506 48.2734L30.0237 48.3957L27.3873 50.2502L24.7441 52.1047C23.2318 53.1725 22.9764 46.4035 23.9895 44.8712C23.7438 44.4641 23.5401 44.0329 23.3817 43.5845C23.4361 43.565 23.4905 43.5455 23.5452 43.5267C18.2968 45.3365 14.4382 49.327 12.9152 54.6308C17.7696 58.01 23.6683 59.9929 30.0305 59.9929C36.3979 59.9929 42.3012 58.0068 47.1576 54.6227C45.6324 49.3199 41.7713 45.3314 36.5209 43.5238ZM25.0367 43.0782L25.0516 43.0748C25.0467 43.0763 25.0416 43.0773 25.0367 43.0782Z" fill="#7184EB"/>
<path d="M23.9897 44.8712C24.1911 44.5666 24.4423 44.4677 24.7443 44.6801L27.3875 46.5346L29.8506 48.2736C29.9107 48.2751 29.9702 48.2783 30.0308 48.2783C30.0889 48.2783 30.1462 48.2754 30.2038 48.2739L32.6672 46.5346L35.3104 44.6801C35.6138 44.4665 35.8665 44.5676 36.0688 44.8766C36.3167 44.4666 36.5219 44.0323 36.6811 43.5804C36.6276 43.5616 36.5744 43.5423 36.5209 43.5237C36.3613 43.4691 36.201 43.4165 36.04 43.366C35.9548 43.3394 35.8704 43.3116 35.7842 43.286C35.5429 43.2136 35.3001 43.146 35.056 43.0834C35.0397 43.079 35.0228 43.0751 35.0065 43.0709C34.7617 43.0094 34.5158 42.9527 34.2688 42.9008C34.1867 42.8834 34.1033 42.8678 34.0205 42.8515C33.5587 42.7595 33.0938 42.6841 32.6266 42.6254C32.5429 42.6149 32.4597 42.6032 32.3757 42.5937C32.1021 42.5618 31.8279 42.5354 31.5533 42.5143H29.9412C29.8303 42.5209 29.7198 42.5209 29.6089 42.5143H28.5226C28.2479 42.5354 27.9737 42.5618 27.7 42.5937C27.616 42.6032 27.533 42.6149 27.4495 42.6254C27.2594 42.6496 27.0699 42.6757 26.8822 42.7047C26.6047 42.7481 26.328 42.7971 26.0525 42.8519C25.9712 42.8681 25.8892 42.8834 25.8084 42.9005C25.5551 42.9536 25.3028 43.0118 25.0519 43.0751L25.037 43.0785C24.7856 43.1431 24.5355 43.2127 24.2868 43.2872C24.2063 43.3114 24.1269 43.3372 24.0471 43.3624C23.8792 43.4148 23.7121 43.4697 23.5457 43.5269C23.491 43.5457 23.4366 43.5652 23.3822 43.5848C23.5405 44.0331 23.7441 44.4642 23.9897 44.8712Z" fill="#FEFEFE"/>
<path d="M35.3104 44.6801L32.6672 46.5346L30.2038 48.2739L30.0308 48.3959L32.6672 50.2505L35.3104 52.105C36.8268 53.1715 37.0792 46.4189 36.0688 44.8768C35.8667 44.5676 35.6141 44.4665 35.3104 44.6801ZM24.7443 44.6801C24.4426 44.4677 24.1911 44.5666 23.9897 44.8712C22.9767 46.4033 23.232 53.1725 24.7443 52.1047L27.3875 50.2502L30.0239 48.3957L29.8508 48.2734L27.3878 46.5344L24.7443 44.6801Z" fill="#CFE07D"/>
<path d="M30.0447 20.9459V14.2617C24.2055 13.8631 15.8367 19.2418 15.9136 28.1704C15.9153 28.3835 15.9172 28.5966 15.9287 28.8136C20.0459 31.4014 28.6193 27.0074 30.0447 20.9459Z" fill="#B6C918" fill-opacity="0.76"/>
<path d="M30.0447 20.9459C31.472 26.9857 40.0015 31.368 44.1426 28.839C44.1575 28.83 44.1736 28.8229 44.1885 28.8136C44.6935 19.4998 36.0371 13.8535 30.0449 14.2617L30.0447 20.9459Z" fill="#E5E832"/>
</g>
<defs>
<clipPath id="clip0_178_574">
<rect width="60" height="60" fill="white"/>
</clipPath>
</defs>
</svg>
