<?xml version="1.0" encoding="utf-8"?>
<!-- Generator: Adobe Illustrator 28.2.0, SVG Export Plug-In . SVG Version: 6.00 Build 0)  -->
<svg version="1.1" id="图层_1" xmlns:v="https://svgstorm.com"
	 xmlns="http://www.w3.org/2000/svg" xmlns:xlink="http://www.w3.org/1999/xlink" x="0px" y="0px" viewBox="0 0 1024 1024"
	 style="enable-background:new 0 0 1024 1024;" xml:space="preserve">
<style type="text/css">
	.st0{fill:#132F42;}
	.st1{fill:#107CF3;}
	.st2{fill:#FFFFFF;}
	.st3{fill:url(#SVGID_1_);}
	.st4{fill:#F9FEF2;}
	.st5{fill:#F5FCF5;}
	.st6{fill:#0E2846;}
	.st7{fill:#0C2240;}
	.st8{fill:#041A30;}
	.st9{fill:none;}
	.st10{fill:#0BB47F;}
	.st11{fill:url(#SVGID_00000094576634088664694420000017655384517881337228_);}
	.st12{fill:#44E86C;}
	.st13{fill:#B4C2CB;}
</style>
<g>
	<g>
		<path class="st0" d="M278.7,393.7c0,72.2,41.3,134.7,101.5,165.2c8.7,4.4,17.8,8.1,27.2,11.1c16.9,5.4,34.8,8.4,53.4,8.7
			c0.9,0,1.9,0,2.8,0c10.1,0,20-0.8,29.7-2.4c88-14.2,155.3-90.6,155.3-182.6c0-102.2-82.8-185-185-185
			C361.5,208.7,278.7,291.5,278.7,393.7z M303.7,393.7c0-28.7,7.6-55.7,20.8-79l4.8,39.6c-3.7,12.5-5.6,25.7-5.6,39.4
			c0,77.3,62.7,140,140,140c47.5,0,89.5-23.7,114.8-59.8c13.3-19,22-41.5,24.5-65.8l16,24.4c-17.3,69.7-80.3,121.3-155.3,121.3
			C375.3,553.7,303.7,482,303.7,393.7z"/>
		<path class="st1" d="M303.7,393.7c0,88.4,71.6,160,160,160c75,0,138-51.6,155.3-121.3L603,408c-2.5,24.3-11.2,46.8-24.5,65.8
			c-25.3,36.2-67.3,59.8-114.8,59.8c-77.3,0-140-62.7-140-140c0-13.7,2-26.9,5.6-39.4l-4.8-39.6C311.3,338,303.7,364.9,303.7,393.7z
			"/>
		<path class="st2" d="M323.7,393.7c0,77.3,62.7,140,140,140c47.5,0,89.5-23.7,114.8-59.8c13.3-19,22-41.5,24.5-65.8l16,24.4
			c3.1-12.4,4.7-25.3,4.7-38.7c0-88.4-71.6-160-160-160c-59.6,0-111.6,32.6-139.2,81l4.8,39.6C325.7,366.8,323.7,380,323.7,393.7z"
			/>
		<path class="st1" d="M380.9,614.2c0,0,44.7-4.2,80-35.6c-18.6-0.3-36.5-3.3-53.4-8.7C405.3,582.3,398.9,599.5,380.9,614.2z"/>
		<path class="st0" d="M338.7,623c5.8,18.5,15.9,15.5,15.9,15.5c85.8-1.2,128.5-48.8,138.8-62.2c1.7-2.2,2.5-3.5,2.5-3.5l-13.6-19.2
			c-6.3,9.8-13.6,18.1-21.4,25c-35.2,31.3-80,35.6-80,35.6c18-14.7,24.4-31.9,26.6-44.3c1.7-9.7,0.7-16.3,0.7-16.3l-30.5,3.3
			c1,0.6,1.8,1.2,2.5,1.9c15.3,14.3-24,50.1-24,50.1C344.2,610.1,338.7,623,338.7,623z"/>
	</g>
	<linearGradient id="SVGID_1_" gradientUnits="userSpaceOnUse" x1="463.69" y1="253.6622" x2="463.69" y2="533.6622">
		<stop  offset="0" style="stop-color:#FFFFFF"/>
		<stop  offset="0" style="stop-color:#38E2FD"/>
		<stop  offset="0.21" style="stop-color:#32D6FD"/>
		<stop  offset="0.6462" style="stop-color:#28C1FD"/>
		<stop  offset="0.9385" style="stop-color:#24BAFD"/>
		<stop  offset="1" style="stop-color:#24BAFD"/>
		<stop  offset="1" style="stop-color:#2EC1DE"/>
		<stop  offset="1" style="stop-color:#3ECCAE"/>
		<stop  offset="1" style="stop-color:#4AD588"/>
		<stop  offset="1" style="stop-color:#53DB6C"/>
		<stop  offset="1" style="stop-color:#58DF5C"/>
		<stop  offset="1" style="stop-color:#5AE056"/>
	</linearGradient>
	<path class="st3" d="M323.7,393.7c0,77.3,62.7,140,140,140c47.5,0,89.5-23.7,114.8-59.8c13.3-19,22-41.5,24.5-65.8
		c0.5-4.7,0.7-9.5,0.7-14.3c0-77.3-62.7-140-140-140c-63.6,0-117.3,42.5-134.4,100.6C325.7,366.8,323.7,380,323.7,393.7z"/>
	<g>
		<path class="st4" d="M530.6,323.7c10.8-4.1,3.7-22.1-8-18C511.8,309.4,519.8,327.7,530.6,323.7z"/>
	</g>
	<g>
		<path class="st5" d="M410.6,321.5c8.3-4.6,4.9-17.7-5.7-13.7C396.9,310.7,402.3,326,410.6,321.5z"/>
	</g>
	<g>
		<path class="st6" d="M527.3,347.5c-13.6-1.1-29.3,2.4-44,1s-30.2,1.1-45,0s-30.2,1.6-45,0s-18.4,16-6,22c0,0,0.5,0,1,0
			c47.3,0,94.7,0,142,0c0,0,0.6,0.2,1,0c4.3-4.5,9.3-8.8,6-16C534.1,351.6,531.8,348.3,527.3,347.5z"/>
	</g>
	<g>
		<path class="st7" d="M498.9,397c-15.1-1.6-34.5,1.7-50,0s-34.7,2.8-50,0s-31,10.8-15,22c17.7-1.6,39.6,1,57,0s41.1,1.1,57,0
			s42.8,6.6,43-14C531.4,391.4,514,398.7,498.9,397z"/>
	</g>
	<g>
		<path class="st8" d="M530,446.5c-15.2-2.6-31.5,0.7-47,0s-32.4-0.6-48,0s-32.6-2.4-48,0c-1.2,0.2-2,0.4-3,1c-3.2,2.3-6.3,8.2-6,12
			c1.7,14.7,23,9.1,33,10s13.6-0.4,22,0s13.4-0.2,21,0s13.9,0,21,0s15.3,0.1,22,0s15.1,0.3,21,0s13.7,1.1,14,1c3.7-2.2,6.7-6.1,8-10
			C541.1,453.6,535.8,448.2,530,446.5z"/>
	</g>
	<line class="st9" x1="329.3" y1="354.3" x2="329.3" y2="354.3"/>
	<path class="st1" d="M484.3,552.3c0,0-13.9,19.6-23.4,26.3s-53.4-8.7-53.4-8.7s3.1-11.3,0-26.5"/>
	<g>
		<path class="st2" d="M459.5,564.2c-12.8-2.7-27.4,1.7-39-5c0.1,16.4-11.8,28.8-17,43c7.4-1.6,13.1-6.8,20-10
			c8.4-4.9,18.5-10.5,26-17C453.1,572.1,456.2,567.6,459.5,564.2z"/>
	</g>
</g>
<path class="st0" d="M533.3,638.6L533.3,638.6z"/>
<g>
	<g>
		<path class="st0" d="M644.7,208.7c-102.2,0-185,82.8-185,185c0,92,67.2,168.4,155.3,182.6c9.7,1.6,19.6,2.4,29.7,2.4
			c0.9,0,1.9,0,2.8,0c18.6-0.3,36.5-3.3,53.4-8.7c9.4-3,18.5-6.7,27.2-11.1c60.2-30.5,101.5-93,101.5-165.2
			C829.7,291.5,746.9,208.7,644.7,208.7z M644.7,553.7c-75,0-138-51.6-155.3-121.3l16-24.4c2.5,24.3,11.2,46.8,24.5,65.8
			c25.3,36.2,67.3,59.8,114.8,59.8c77.3,0,140-62.7,140-140c0-13.7-2-26.9-5.6-39.4l4.8-39.6c13.3,23.3,20.8,50.3,20.8,79
			C804.7,482,733,553.7,644.7,553.7z"/>
		<path class="st10" d="M804.7,393.7c0,88.4-71.6,160-160,160c-75,0-138-51.6-155.3-121.3l16-24.4c2.5,24.3,11.2,46.8,24.5,65.8
			c25.3,36.2,67.3,59.8,114.8,59.8c77.3,0,140-62.7,140-140c0-13.7-2-26.9-5.6-39.4l4.8-39.6C797.1,338,804.7,364.9,804.7,393.7z"/>
		<path class="st2" d="M784.7,393.7c0,77.3-62.7,140-140,140c-47.5,0-89.5-23.7-114.8-59.8c-13.3-19-22-41.5-24.5-65.8l-16,24.4
			c-3.1-12.4-4.7-25.3-4.7-38.7c0-88.4,71.6-160,160-160c59.6,0,111.6,32.6,139.2,81l-4.8,39.6C782.7,366.8,784.7,380,784.7,393.7z"
			/>
		<path class="st10" d="M727.5,614.2c0,0-44.7-4.2-80-35.6c18.6-0.3,36.5-3.3,53.4-8.7C703.1,582.3,709.5,599.5,727.5,614.2z"/>
		<path class="st0" d="M769.7,623c-5.8,18.5-15.9,15.5-15.9,15.5c-85.8-1.2-128.5-48.8-138.8-62.2c-1.7-2.2-2.5-3.5-2.5-3.5
			l13.6-19.2c6.3,9.8,13.6,18.1,21.4,25c35.2,31.3,80,35.6,80,35.6c-18-14.7-24.4-31.9-26.6-44.3c-1.7-9.7-0.7-16.3-0.7-16.3
			l30.5,3.3c-1,0.6-1.8,1.2-2.5,1.9c-15.3,14.3,24,50.1,24,50.1C764.2,610.1,769.7,623,769.7,623z"/>
	</g>
	<g>
		
			<linearGradient id="SVGID_00000120544979435504383430000002797042084260682685_" gradientUnits="userSpaceOnUse" x1="644.69" y1="691.1411" x2="644.69" y2="689.3742">
			<stop  offset="0" style="stop-color:#FFFFFF"/>
			<stop  offset="0" style="stop-color:#98FF2E"/>
			<stop  offset="0" style="stop-color:#8BF936"/>
			<stop  offset="0" style="stop-color:#70EB48"/>
			<stop  offset="0" style="stop-color:#60E352"/>
			<stop  offset="0" style="stop-color:#5AE056"/>
			<stop  offset="1" style="stop-color:#0AEA44"/>
		</linearGradient>
		<path style="fill:url(#SVGID_00000120544979435504383430000002797042084260682685_);" d="M784.7,394.7c0,77.3-62.7,140-140,140
			c-47.5,0-89.5-23.7-114.8-59.8c-13.3-19-22-41.5-24.5-65.8c-0.5-4.7-0.7-9.5-0.7-14.3c0-77.3,62.7-140,140-140
			c63.6,0,117.3,42.5,134.4,100.6C782.7,367.8,784.7,381,784.7,394.7z"/>
		<g>
			<path class="st4" d="M585.8,306.7c-11.7-4.1-18.8,13.9-8,18S596.5,310.4,585.8,306.7z"/>
		</g>
		<g>
			<path class="st5" d="M703.5,308.7c-10.7-3.9-14,9.2-5.7,13.7C706,327,711.4,311.7,703.5,308.7z"/>
		</g>
		<g>
			<path class="st6" d="M571.1,355.5c-3.3,7.2,1.7,11.5,6,16c0.4,0.2,1,0,1,0c47.3,0,94.7,0,142,0c0.5,0,1,0,1,0
				c12.4-6,8.8-23.6-6-22s-30.2-1.1-45,0s-30.3-1.4-45,0s-30.4-2.1-44-1C576.6,349.3,574.2,352.6,571.1,355.5z"/>
		</g>
		<g>
			<path class="st7" d="M567.5,406c0.2,20.6,27.1,12.9,43,14s39.6-1,57,0s39.3-1.6,57,0c16-11.2,0.3-24.8-15-22s-34.5-1.7-50,0
				s-34.9-1.6-50,0S577,392.4,567.5,406z"/>
		</g>
		<g>
			<path class="st8" d="M568.4,461.5c1.3,3.9,4.3,7.8,8,10c0.3,0.1,8.1-1.3,14-1s14.3-0.1,21,0s14.9,0,22,0s13.4,0.2,21,0
				s12.6,0.4,21,0s12,0.9,22,0s31.3,4.7,33-10c0.3-3.8-2.8-9.7-6-12c-1-0.6-1.8-0.8-3-1c-15.4-2.4-32.4,0.6-48,0s-32.5-0.7-48,0
				s-31.8-2.6-47,0C572.5,449.2,567.3,454.6,568.4,461.5z"/>
		</g>
	</g>
	<line class="st9" x1="779.1" y1="354.3" x2="779.1" y2="354.3"/>
	<path class="st10" d="M624.1,552.3c0,0,13.9,19.6,23.4,26.3s53.4-8.7,53.4-8.7s-3.1-11.3,0-26.5"/>
	<g>
		<path class="st12" d="M658.8,575.2c7.5,6.5,17.6,12.1,26,17c6.9,3.2,12.6,8.4,20,10c-5.2-14.2-17.1-26.6-17-43
			c-11.6,6.7-26.2,2.3-39,5C652.2,567.6,655.3,572.1,658.8,575.2z"/>
	</g>
</g>
<g id="图层_3">
</g>
<path class="st13" d="M724.1,738"/>
<path class="st13" d="M559.8,726.3"/>
</svg>
