<svg width="20" height="20" viewBox="0 0 20 20" fill="none" xmlns="http://www.w3.org/2000/svg">
<path d="M10.7692 13.2647C11.5259 12.3266 11.7528 11.5661 11.4754 10.9577C11.1223 10.2985 10.6431 9.79147 9.83607 9.66472C9.78562 10.1971 9.70996 10.6534 9.65952 10.9577C10.0631 11.3126 10.4161 11.5407 10.5927 11.845C10.8197 12.1999 10.5422 12.7323 10.1135 12.7323C9.28121 12.7323 8.65069 12.0224 8.7768 11.2112C8.7768 11.0337 8.7768 10.9069 8.82724 10.7295C9.23077 8.85346 7.99496 8.19432 6.60782 8.19432C5.62421 8.19432 4.61539 8.37178 3.63178 8.42248C3.75788 7.58587 4.46406 7.53517 5.14502 7.53517C6.30517 7.48447 7.4401 7.40841 8.60025 7.30701C9.00378 7.2563 9.48298 7.18025 9.43253 6.59716H4.86759C4.99369 6.29294 5.09458 6.06477 5.27112 5.70985C4.79193 5.48168 4.3884 5.30422 3.85876 5C3.55612 6.64786 2.57251 7.18025 1.05927 6.64786C0.933165 7.9915 1.99243 7.48447 2.69861 7.76334C1.76545 8.92952 0.933165 9.99429 0 11.1858C0.882724 11.3633 1.41236 10.7041 2.21942 10.2985C1.86633 12.1238 1.56368 13.7717 1.23581 15.4196C1.94199 15.597 2.52207 15.2928 2.82472 14.5829C3.00126 14.1013 3.0517 13.6449 3.22825 13.2393C3.75788 11.5914 5.52333 10.4253 7.33922 10.8309C7.28878 11.0591 7.28878 11.2365 7.21311 11.49C6.73392 11.49 6.27995 11.49 5.87642 11.5407C5.1198 11.6675 4.46406 12.0224 4.28752 12.8337C4.11097 13.5942 4.33796 14.2534 4.9937 14.7097C5.92686 15.3689 7.03657 15.597 8.27238 15.597C8.39849 14.9379 8.44893 14.3041 8.57503 13.5942C8.87768 13.7717 9.05422 13.8985 9.28121 13.9492C10.971 14.8872 12.7364 15.7238 14.7289 15.9519C16.6709 16.1801 18.3607 15.597 19.6974 14.1773C19.8235 14.0506 19.9243 13.8224 20 13.6449C16.6961 15.4449 13.6948 14.9125 10.7692 13.2647ZM7.08701 9.38585C5.8512 9.86753 4.61538 10.3239 3.45523 10.7295C3.32913 9.89288 3.45523 9.48725 4.33796 9.30979C4.9937 9.13233 5.67465 9.13233 6.33039 9.13233H6.63304C7.314 9.15768 7.08701 9.38585 7.08701 9.38585ZM6.91047 12.8083C6.78436 13.3914 6.73392 13.9745 6.60782 14.5829H6.33039C6.27995 14.5829 6.27995 14.5829 6.20429 14.5322C6.15385 14.5322 6.07818 14.4815 6.07818 14.4815C6.07818 14.4815 6.02774 14.4815 6.02774 14.4308C6.02774 14.4308 5.9773 14.4308 5.9773 14.3801C5.9773 14.3801 5.92686 14.3801 5.92686 14.3294H5.87642L5.82598 14.2787C5.77554 14.2787 5.77554 14.228 5.77554 14.228C5.72509 14.1773 5.64943 14.1013 5.64943 14.0506L5.59899 13.9999C5.59899 13.9999 5.59899 13.9492 5.54855 13.9492C5.49811 13.8224 5.49811 13.6449 5.49811 13.5435V13.3914C5.49811 12.7323 6.02774 12.5548 6.91047 12.8083Z" fill="white"/>
<path d="M19.2686 6.5718C18.6129 6.62251 18.0328 6.62251 17.2762 6.69856C17.5788 6.29294 17.7554 6.03942 17.9319 5.76055C17.4527 5.53238 17.0492 5.35492 16.6456 5.17746C15.9395 5.65914 15.889 6.64786 14.9559 6.82532C14.8298 6.29294 14.7793 5.76055 14.7289 5.30422C13.4931 5.48168 13.4426 5.60844 13.6696 6.90138H11.8033C11.8033 7.66193 11.9798 7.83939 12.7869 7.83939H14.4767C14.4767 7.89009 14.5271 8.01685 14.5271 8.06756C14.174 8.19431 13.7705 8.29572 13.4174 8.47318C13.0643 8.65064 12.4842 8.87881 12.4338 9.18303C12.1311 10.476 12.0303 11.845 11.8537 13.2393C13.6192 14.3548 15.5359 14.1773 17.604 13.8984C17.7301 13.1379 17.7806 12.4788 17.9067 11.845C17.9571 11.1858 18.1337 10.552 18.1337 9.89288C18.1841 8.95486 17.831 8.54924 16.9735 8.37178C16.6204 8.32107 16.2169 8.24502 15.8638 8.19431C15.8638 8.14361 15.8134 8.06756 15.8134 8.01685C16.1665 7.89009 16.5195 7.78869 16.9231 7.71263C17.5788 7.58587 18.2093 7.58587 18.7894 7.48447C19.0416 7.2563 19.4451 7.15489 19.2686 6.5718ZM16.1665 12.859C15.1828 13.2647 14.2245 13.1632 13.2913 12.859C13.2913 12.8083 13.3417 12.7323 13.4174 12.6816C13.4931 12.6309 13.4678 12.5548 13.5435 12.5041L13.5939 12.4534L13.6444 12.4027L13.6948 12.352C13.7453 12.3013 13.8209 12.3013 13.8714 12.2252C13.8714 12.2252 13.9218 12.2252 13.9218 12.1745C14.0479 12.1238 14.0984 12.1238 14.2245 12.0478H15.4603C15.6873 12.0478 15.9395 12.0985 16.2169 12.1745C16.1665 12.1492 16.9231 12.3266 16.1665 12.859ZM16.0403 11.0337H15.889C15.7629 11.0337 15.7125 11.0844 15.5864 11.0844C15.4098 11.1351 15.1828 11.1351 15.0063 11.2112L13.7705 11.3886C13.6444 11.3886 13.5939 11.4393 13.4678 11.4393V11.1605C13.4678 11.1098 13.4678 11.0337 13.5183 10.983C13.6444 10.7548 13.8209 10.6281 14.0984 10.5013C14.1488 10.5013 14.1488 10.5013 14.2245 10.4506H14.628C15.2081 10.3999 15.7881 10.4506 16.3934 10.4506C17.2762 10.4506 16.343 10.9069 16.0403 11.0337ZM16.4691 9.33514C15.5359 9.5126 14.6028 9.69007 13.72 9.86753C13.5939 9.33514 13.8461 9.03092 14.4262 8.92951C15.4603 8.62529 16.116 8.75205 16.4691 9.33514ZM9.96216 8.57459L10.1387 7.15489C11.198 7.38306 11.8285 8.49853 11.5511 9.63936C11.2484 9.4619 11.0214 9.28444 10.7944 9.10698C10.5422 8.92951 10.2396 8.80275 9.96216 8.57459ZM5.44766 13.9238C5.4981 13.9745 5.4981 14.0506 5.57377 14.1013C5.57377 14.0506 5.4981 13.9745 5.44766 13.9238ZM6.60781 14.5576C6.12862 14.4308 5.77553 14.3294 5.54855 14.0759C5.80075 14.3294 6.15384 14.5069 6.60781 14.5576Z" fill="white"/>
</svg>
