<svg width="20" height="20" viewBox="0 0 20 20" fill="none" xmlns="http://www.w3.org/2000/svg">
<g clip-path="url(#clip0_160_654)">
<path d="M10.3992 11.8875V9.155H19.6067C19.6967 9.63083 19.7433 10.1942 19.7433 10.8042C19.7433 12.8542 19.1833 15.3892 17.3767 17.195C15.62 19.0242 13.3758 20 10.4025 20C4.89083 20 0.256668 15.5108 0.256668 10C0.256668 4.48917 4.89083 0 10.4025 0C13.4517 0 15.6233 1.19667 17.255 2.75583L15.3267 4.68333C14.1567 3.58583 12.5708 2.7325 10.3992 2.7325C6.375 2.7325 3.2275 5.97583 3.2275 10C3.2275 14.0242 6.375 17.2675 10.3992 17.2675C13.0092 17.2675 14.4958 16.2192 15.4483 15.2667C16.2208 14.4942 16.7292 13.3908 16.9292 11.8842L10.3992 11.8875Z" fill="white"/>
</g>
<defs>
<clipPath id="clip0_160_654">
<rect width="20" height="20" fill="white"/>
</clipPath>
</defs>
</svg>
