<svg width="20" height="20" viewBox="0 0 20 20" fill="none" xmlns="http://www.w3.org/2000/svg">
<path d="M4.49931 1.66173C4.49931 1.10837 4.22096 0.553356 3.66593 0H7.83282C8.38785 0.553356 8.6662 1.10837 8.6662 1.66173C8.6662 1.44072 8.38785 3.26862 7.83282 7.14544C7.36613 10.4091 11.673 10.5869 12.1664 7.14544C12.7214 3.26862 12.9998 1.44072 12.9998 1.66173C12.9998 1.10837 12.7214 0.553356 12.1664 0H16.1666C16.7217 0.553356 17 1.10837 17 1.66173L16.1666 9.97038C15.6116 17.1707 11.1663 20.4941 2.83255 19.9408C1.72248 19.8676 1.72248 18.4818 2.83255 15.7864C2.83255 16.3398 3.1109 16.6173 3.66593 16.6173C7.9295 16.6173 10.708 15.2331 11.9997 12.463C10.888 13.0163 9.22123 13.2938 6.99944 13.2938C3.66593 13.2938 3.39091 11.6055 3.66593 9.13952L4.49931 1.66173Z" fill="white"/>
</svg>
