<svg width="20" height="20" viewBox="0 0 20 20" fill="none" xmlns="http://www.w3.org/2000/svg">
<path d="M11.211 18.9478C10.288 18.3647 8.19028 17.0465 6.5361 16.0326C4.89391 15.0059 3.41954 14.0299 3.2757 13.8525C3 13.5356 3 13.523 3 9.09947C3 4.89145 3.01199 4.6633 3.22775 4.43515C3.59934 4.04224 9.90439 0.113059 10.288 0.0370103C10.7195 -0.051713 10.4917 -0.178461 14.4234 2.25509C16.7369 3.67467 17.6958 4.33375 17.8157 4.57458C18.0554 5.06889 18.0674 13.1427 17.8157 13.6497C17.6958 13.8905 17.0365 14.3722 15.694 15.196C12.9251 16.8944 13.1288 16.6283 13.1408 18.4788C13.1528 19.5181 13.1049 20.0124 13.021 19.9998C12.949 19.9998 12.1339 19.5181 11.211 18.9478ZM9.04134 13.6244C9.50883 13.4216 9.61671 13.2695 9.7126 12.6737C9.77254 12.2682 9.88042 12.1668 11.0312 11.4316C11.7264 11.0007 12.3617 10.6458 12.4456 10.6331C12.6853 10.6331 12.6134 10.4303 12.2898 10.2529C12.038 10.1134 11.9661 10.1134 11.7863 10.2782C11.4747 10.5444 9.65267 11.6471 9.50883 11.6471C9.43691 11.6471 9.23313 11.571 9.05333 11.4696C8.40604 11.1148 7.56697 11.6851 7.55498 12.509C7.55498 13.054 7.7228 13.3709 8.13035 13.599C8.5379 13.8398 8.56187 13.8398 9.04134 13.6244ZM14.1837 10.2909C14.4714 10.0121 14.6152 9.37831 14.4833 8.98539C14.2196 8.25026 13.6443 7.95874 13.0449 8.27561C12.6254 8.50375 12.6254 8.50375 10.8274 7.36302C9.82049 6.74196 9.7126 6.64056 9.7126 6.29834C9.7126 5.79135 9.13724 5.18296 8.65777 5.18296C8.442 5.18296 8.14233 5.32239 7.92657 5.51251C6.95564 6.37439 7.97452 8.02211 9.10128 7.40105C9.47287 7.19825 9.47287 7.19825 10.9113 8.09816C12.122 8.84597 12.3497 9.04877 12.3497 9.30226C12.3497 10.3543 13.4765 10.9627 14.1837 10.2909Z" fill="white"/>
</svg>
