<svg width="40" height="40" viewBox="0 0 40 40" fill="none" xmlns="http://www.w3.org/2000/svg">
<g id="google">
<path id="vector" d="M37.0481 20.464C37.0481 19.0709 36.9313 18.0544 36.6787 17.0002H20.2507V23.2877H29.8935C29.6992 24.8503 28.6494 27.2035 26.3164 28.7847L26.2836 28.9952L31.4779 32.8916L31.8377 32.9264C35.1427 29.9708 37.0481 25.6221 37.0481 20.464Z" fill="#4285F4"/>
<path id="vector_2" d="M20.2496 37.0305C24.9737 37.0305 28.9397 35.5244 31.8366 32.9266L26.3152 28.7848C24.8377 29.7826 22.8546 30.4791 20.2496 30.4791C15.6225 30.4791 11.6954 27.5236 10.2955 23.4385L10.0903 23.4553L4.68928 27.5028L4.61865 27.693C7.49594 33.2276 13.4061 37.0305 20.2496 37.0305Z" fill="#34A853"/>
<path id="vector_3" d="M10.2966 23.4386C9.92717 22.3844 9.7134 21.2548 9.7134 20.0877C9.7134 18.9204 9.92717 17.791 10.2771 16.7367L10.2673 16.5122L4.79862 12.3997L4.61969 12.4822C3.43381 14.7789 2.75336 17.358 2.75336 20.0877C2.75336 22.8173 3.43381 25.3963 4.61969 27.6931L10.2966 23.4386Z" fill="#FBBC05"/>
<path id="vector_4" d="M20.2496 9.69607C23.5352 9.69607 25.7515 11.0703 27.0152 12.2187L31.9534 7.55003C28.9206 4.82036 24.9739 3.1449 20.2496 3.1449C13.4062 3.1449 7.49596 6.94759 4.61865 12.4822L10.2761 16.7368C11.6955 12.6517 15.6226 9.69607 20.2496 9.69607Z" fill="#EB4335"/>
</g>
</svg>
