<svg width="30" height="30" viewBox="0 0 30 30" fill="none" xmlns="http://www.w3.org/2000/svg">
<path d="M23.5025 26.255C24.3263 26.255 25 25.5925 25 24.78V9.74246C25 8.92996 24.325 8.26746 23.5025 8.26746H8.8938L14.7563 26.255H23.5025Z" fill="#D9D9D9"/>
<path d="M13.3726 22.005L14.7563 26.255L18.6051 22.005H13.3726Z" fill="#114BA3"/>
<path d="M23.6025 14.4825V13.6013H19.3525V12.1763H17.975V13.6013H15.2625V14.4825H20.66C20.3712 15.4988 19.7325 16.46 19.11 17.2063C18.0087 15.9 18.0037 15.4763 18.0037 15.4763H16.8587C16.8587 15.4763 16.9062 16.1125 18.4525 17.925C17.95 18.4388 17.5687 18.7438 17.5687 18.7438L17.92 19.8438C17.92 19.8438 18.4525 19.3863 19.1175 18.6813C19.9648 19.5909 20.8463 20.4682 21.76 21.3113L22.4837 20.5863C21.5447 19.7471 20.6406 18.8697 19.7737 17.9563C20.6349 16.9375 21.5087 15.655 21.6937 14.4813H23.6012V14.4825H23.6037H23.6025Z" fill="#4E5969"/>
<path d="M3.99625 3.75C3.175 3.75 2.5 4.425 2.5 5.25V20.5112C2.5 21.3337 3.175 22.0075 3.99625 22.0075H18.6063L12.7437 3.75H3.99625Z" fill="#3491FA"/>
<path d="M10.8725 13.4563C10.8162 14.14 10.2325 15.1525 8.81874 15.1525C7.59374 15.1525 6.60249 14.14 6.60249 12.8938C6.60249 11.6463 7.59499 10.635 8.81874 10.635C9.51499 10.635 9.97999 10.9363 10.2462 11.1825L11.175 10.29C10.5361 9.69402 9.69247 9.36642 8.81874 9.37504C7.88638 9.37571 6.99239 9.74638 6.33311 10.4057C5.67383 11.0649 5.30315 11.9589 5.30249 12.8913C5.30315 13.8237 5.67383 14.7176 6.33311 15.3769C6.99239 16.0362 7.88638 16.4069 8.81874 16.4075C10.8525 16.4075 12.1962 14.9813 12.1962 12.9675C12.1962 12.68 12.1587 12.4675 12.1125 12.2513H8.82124V13.455L10.8712 13.4575L10.8725 13.4563Z" fill="#EEEEEE"/>
</svg>
