<svg width="35" height="35" viewBox="0 0 35 35" fill="none" xmlns="http://www.w3.org/2000/svg">
<g id="Frame" clip-path="url(#clip0_191_599)">
<path id="Vector" d="M17.903 34.2736C8.51417 34.2736 0.903015 26.6624 0.903015 17.2736C0.903015 7.88471 8.51417 0.27356 17.903 0.27356C27.2919 0.27356 34.903 7.88471 34.903 17.2736C34.903 26.6624 27.2919 34.2736 17.903 34.2736ZM27.9968 19.7218C27.9968 16.9213 25.2 14.6409 22.0537 14.6409C18.7202 14.6409 16.1025 16.9213 16.1025 19.7218C16.1025 22.5294 18.7202 24.8018 22.0536 24.8018C22.751 24.8018 23.4563 24.6237 24.1531 24.4536L26.0743 25.5079L25.5486 23.7555C26.9504 22.7008 27.9968 21.297 27.9968 19.7218ZM20.1232 18.8452C19.7754 18.8452 19.4267 18.4965 19.4267 18.1466C19.4267 17.7988 19.7754 17.4493 20.1232 17.4493C20.6506 17.4493 20.9997 17.7988 20.9997 18.1466C20.9997 18.4965 20.6506 18.8452 20.1232 18.8452ZM23.9753 18.8452C23.627 18.8452 23.2792 18.4965 23.2792 18.1466C23.2792 17.7988 23.627 17.4493 23.9753 17.4493C24.5018 17.4493 24.8509 17.7988 24.8509 18.1466C24.8509 18.4965 24.4934 18.8452 23.9752 18.8452H23.9753ZM21.4762 14.022C21.7054 14.022 21.9355 14.038 22.1643 14.0615C21.5477 11.1773 18.4699 9.03922 14.9552 9.03922C11.03 9.03922 7.80926 11.7167 7.80926 15.123C7.80926 17.0881 8.87794 18.7037 10.6662 19.9559L9.95418 22.11L12.4545 20.851C13.3486 21.025 14.0686 21.2077 14.9552 21.2077C15.1765 21.2077 15.3989 21.1997 15.6206 21.177C15.478 20.7008 15.3989 20.1951 15.3989 19.6793C15.3985 16.5571 18.0817 14.022 21.4762 14.022H21.4762ZM17.6297 12.0809C18.1676 12.0809 18.5234 12.4375 18.5234 12.9765C18.5234 13.5146 18.1671 13.8712 17.6296 13.8712C17.0913 13.8712 16.5538 13.5146 16.5538 12.9765C16.5618 12.4371 17.0989 12.0809 17.6296 12.0809L17.6297 12.0809ZM12.6286 13.8704C12.0903 13.8704 11.5528 13.5142 11.5528 12.9756C11.5528 12.4367 12.0907 12.0805 12.6286 12.0805C13.1674 12.0805 13.5236 12.4371 13.5236 12.9756C13.5232 13.5066 13.1674 13.8704 12.6286 13.8704V13.8704Z" fill="#07C160"/>
</g>
<defs>
<clipPath id="clip0_191_599">
<rect width="34" height="34" fill="white" transform="translate(0.903015 0.27356)"/>
</clipPath>
</defs>
</svg>
