<svg width="16" height="16" viewBox="0 0 16 16" fill="none" xmlns="http://www.w3.org/2000/svg">
<path d="M13.7823 4.07515L13.1236 4.73437C13.879 5.9025 14.211 7.29433 14.0642 8.67766C13.9174 10.061 13.3008 11.3522 12.3171 12.3358C11.3334 13.3194 10.0422 13.936 8.65886 14.0827C7.27552 14.2294 5.88371 13.8973 4.71562 13.1419L4.05687 13.8005C5.22122 14.6021 6.60202 15.0302 8.01562 15.028C11.8784 15.028 15.0098 11.8966 15.0098 8.0339C15.0121 6.6203 14.5839 5.2395 13.7823 4.07515ZM13.6119 1.57671L12.512 2.67671C11.2536 1.61719 9.66071 1.03727 8.01562 1.03968C4.15281 1.03968 1.0214 4.17187 1.0214 8.0339C1.01899 9.67899 1.59891 11.2718 2.65843 12.5303L1.4739 13.7148L2.28515 14.5261L14.4233 2.38812L13.6119 1.57671ZM2.41281 10.4001C1.88308 9.14879 1.78782 7.75604 2.14224 6.44421C2.49666 5.13237 3.28032 3.97708 4.36814 3.16273C5.45596 2.34838 6.78523 1.92192 8.14377 1.95142C9.50232 1.98091 10.8118 2.46467 11.8633 3.32546L3.30718 11.8814C2.93959 11.4331 2.63838 10.9342 2.41281 10.4001Z" fill="#BFBFBF"/>
</svg>
