<svg width="25" height="25" viewBox="0 0 25 25" fill="none" xmlns="http://www.w3.org/2000/svg">
<g clip-path="url(#clip0_263_931)">
<path d="M12.5 25C5.59658 25 0 19.4034 0 12.5C0 5.59658 5.59658 0 12.5 0C19.4034 0 25 5.59658 25 12.5C25 19.4034 19.4034 25 12.5 25ZM12.5 23.3341C18.4818 23.3341 23.3341 18.4852 23.3341 12.5C23.3341 6.51479 18.4818 1.66592 12.5 1.66592C6.51819 1.66592 1.66592 6.51819 1.66592 12.5C1.66592 18.4818 6.51819 23.3341 12.5 23.3341Z" fill="#FF8622"/>
<path d="M12.8239 6.38977C13.9625 6.38977 14.8852 6.69092 15.5966 7.33296C16.3091 7.95454 16.6625 8.80908 16.6625 9.875C16.6625 10.7455 16.4318 11.4727 15.9875 12.042C15.8284 12.2375 15.3284 12.7011 14.4955 13.4284C14.1568 13.7136 13.9091 14.0341 13.7477 14.3523C13.5523 14.7068 13.4637 15.1 13.4637 15.5273V15.8284H11.5602V15.5273C11.5602 14.8682 11.6659 14.3 11.9137 13.8398C12.1455 13.3432 12.8205 12.6125 13.9227 11.6352L14.2239 11.2977C14.5455 10.8875 14.7204 10.4636 14.7204 10C14.7204 9.37727 14.5421 8.8977 14.2046 8.54319C13.85 8.18865 13.3341 8.01023 12.6932 8.01023C11.8921 8.01023 11.3068 8.25908 10.9512 8.775C10.6307 9.20227 10.4716 9.80796 10.4716 10.5886H8.60455C8.60455 9.29092 8.97955 8.27842 9.72387 7.53069C10.4773 6.76365 11.5091 6.38977 12.8239 6.38977ZM12.5057 16.7886C12.8796 16.7886 13.1977 16.8943 13.4489 17.1432C13.6966 17.375 13.8227 17.6761 13.8227 18.05C13.8227 18.4239 13.6807 18.725 13.4318 18.9727C13.181 19.2054 12.8501 19.3324 12.508 19.3273C12.1546 19.3273 11.833 19.2023 11.5852 18.9534C11.4643 18.8358 11.3686 18.6947 11.3041 18.5387C11.2396 18.3828 11.2077 18.2153 11.2102 18.0466C11.2102 17.6727 11.3364 17.3716 11.5852 17.1398C11.8273 16.8943 12.1489 16.7875 12.5057 16.7875V16.7886Z" fill="#FF8622"/>
</g>
<defs>
<clipPath id="clip0_263_931">
<rect width="25" height="25" fill="white"/>
</clipPath>
</defs>
</svg>
