<svg width="25" height="25" viewBox="0 0 25 25" fill="none" xmlns="http://www.w3.org/2000/svg">
<path d="M16.5326 12.3696C16.5326 13.4352 16.1093 14.4573 15.3557 15.2108C14.6022 15.9644 13.5802 16.3877 12.5145 16.3877C11.4488 16.3877 10.4268 15.9644 9.67326 15.2108C8.91971 14.4573 8.49638 13.4352 8.49638 12.3696C8.49441 12.3491 8.49441 12.3285 8.49638 12.308H0V14.0145C0 14.0145 2.40217 14.837 3.16304 16.1884C3.58333 17.6739 2.43841 19.971 2.43841 19.971L3.64493 21.1775L4.85145 22.3841C4.85145 22.3841 7.08333 21.337 8.57246 21.7065C9.9529 22.4312 10.8043 24.9855 10.8043 24.9855H14.221C14.221 24.9855 15.1594 22.1631 16.6667 21.6123C18.1341 21.4022 20.1051 22.337 20.1051 22.337L21.3116 21.1196L22.5326 19.9275C22.5326 19.9275 21.4783 17.7536 21.808 16.2754L21.8261 16.2246C22.5833 14.8551 25 14.0218 25 14.0218V12.3189H16.529C16.5328 12.3355 16.5341 12.3526 16.5326 12.3696Z" fill="#849696"/>
<path d="M21.8225 8.37319L21.7681 8.25L21.7391 8.18841C21.5217 6.73913 22.4638 4.77899 22.4638 4.77899L21.2536 3.57246L20.0471 2.36232C20.0471 2.36232 18.0688 3.31159 16.6051 3.08696C16.471 3.02899 16.337 3.01812 16.1993 2.96739C14.9638 2.1087 14.2174 0 14.2174 0H10.8007C10.8007 0 10.0471 2.13043 8.80073 2.97101C8.71015 3.00725 8.61957 3.01812 8.52899 3.05797C7.05073 3.38043 4.9058 2.33333 4.9058 2.33333L3.70652 3.52899L2.47102 4.71014C2.47102 4.71014 3.58334 6.98551 3.16667 8.46739C2.4058 9.80797 0.0144958 10.6413 0.0144958 10.6413V12.3188H8.50363C8.53498 11.2755 8.97149 10.2854 9.72059 9.55844C10.4697 8.83151 11.4725 8.42494 12.5163 8.42494C13.5601 8.42494 14.5629 8.83151 15.312 9.55844C16.0611 10.2854 16.4976 11.2755 16.529 12.3188H25V10.6051C25 10.6051 22.5362 9.75362 21.8225 8.37319Z" fill="#94A5A6"/>
<path d="M12.5073 6.96016C11.4663 6.9573 10.4479 7.26331 9.58091 7.83948C8.71394 8.41564 8.03738 9.23606 7.63687 10.1969C7.23636 11.1577 7.12989 12.2158 7.33095 13.2371C7.53201 14.2585 8.03155 15.1973 8.76636 15.9346C9.50116 16.6719 10.4382 17.1747 11.4589 17.3793C12.4795 17.5839 13.5379 17.481 14.5001 17.0839C15.4623 16.6867 16.2851 16.0129 16.8642 15.148C17.4434 14.283 17.7529 13.2656 17.7536 12.2247C17.7546 10.8313 17.2027 9.49441 16.2192 8.50743C15.2356 7.52046 13.9006 6.964 12.5073 6.96016ZM12.5073 15.9891C11.762 15.9891 11.0335 15.7682 10.4138 15.3541C9.79413 14.9401 9.31117 14.3516 9.02597 13.663C8.74077 12.9745 8.66615 12.2169 8.81154 11.4859C8.95693 10.755 9.31581 10.0836 9.84279 9.55657C10.3698 9.02959 11.0412 8.67071 11.7721 8.52532C12.5031 8.37993 13.2607 8.45455 13.9492 8.73975C14.6378 9.02495 15.2263 9.50792 15.6403 10.1276C16.0544 10.7472 16.2754 11.4758 16.2754 12.221C16.2754 13.2204 15.8784 14.1788 15.1717 14.8855C14.4651 15.5922 13.5066 15.9891 12.5073 15.9891Z" fill="#B8C4C4"/>
</svg>
