<svg width="140" height="140" viewBox="0 0 140 140" fill="none" xmlns="http://www.w3.org/2000/svg">
<g filter="url(#filter0_d_4_33)">
<rect x="20" y="16" width="100" height="100" rx="20" fill="white"/>
</g>
<path fill-rule="evenodd" clip-rule="evenodd" d="M91.0513 53.8035L87.2235 57.6311L94.4569 64.8639L98.2847 61.0363C98.1648 60.6271 98.0054 60.1703 97.8068 59.6926C97.2501 58.354 96.5032 57.1333 95.7291 56.3592C94.9549 55.585 93.734 54.8382 92.3953 54.2815C91.9175 54.0829 91.4605 53.9235 91.0513 53.8035ZM89.1853 70.1351L81.952 62.9024L62.704 82.1488C60.3702 84.4824 58.9904 88.2784 58.2526 91.9681C58.0947 92.7576 57.9717 93.5138 57.8759 94.2122C58.5734 94.1164 59.3286 93.9934 60.1171 93.8356C63.805 93.0976 67.6014 91.7172 69.9377 89.381L89.1853 70.1351ZM53.8159 98.2726C50.0885 98.2726 50.0885 98.2706 50.0885 98.2706L50.0885 98.263L50.0885 98.2487L50.0888 98.2067L50.0905 98.0695C50.0924 97.955 50.096 97.7951 50.1029 97.5945C50.1167 97.1935 50.1439 96.6277 50.1972 95.9347C50.3034 94.5539 50.5155 92.6414 50.9424 90.5063C51.7677 86.3793 53.5141 80.7955 57.4328 76.8772L88.2107 46.1013L89.7364 46.0886C91.3727 46.0749 93.4434 46.6437 95.2576 47.398C97.1449 48.1829 99.31 49.3974 101 51.0876C102.691 52.7778 103.905 54.9427 104.69 56.83C105.445 58.6442 106.013 60.7148 106 62.3511L105.987 63.8769L75.2089 94.6526C71.289 98.5722 65.7066 100.32 61.58 101.146C59.4454 101.573 57.5335 101.785 56.1531 101.891C55.4603 101.945 54.8947 101.972 54.4939 101.986C54.2933 101.992 54.1334 101.996 54.019 101.998L53.8818 102L53.8398 102L53.8255 102L53.8202 102C53.8202 102 53.8159 102 53.8159 98.2726ZM53.8159 98.2726V102H50.0885V98.2706L53.8159 98.2726Z" fill="#1BA1E3"/>
<path fill-rule="evenodd" clip-rule="evenodd" d="M44.812 40.812L48.4161 30H55.4884L59.0924 40.812L69.9044 44.416V51.4883L59.0924 55.0923L55.4884 65.9044H48.4161L44.812 55.0923L34 51.4883V44.416L44.812 40.812ZM51.9522 42.9659L51.295 44.9375L48.9376 47.295L46.9659 47.9522L48.9376 48.6094L51.295 50.9668L51.9522 52.9385L52.6094 50.9668L54.9669 48.6094L56.9385 47.9522L54.9669 47.295L52.6094 44.9375L51.9522 42.9659Z" fill="#1BA1E3"/>
<defs>
<filter id="filter0_d_4_33" x="0" y="0" width="140" height="140" filterUnits="userSpaceOnUse" color-interpolation-filters="sRGB">
<feFlood flood-opacity="0" result="BackgroundImageFix"/>
<feColorMatrix in="SourceAlpha" type="matrix" values="0 0 0 0 0 0 0 0 0 0 0 0 0 0 0 0 0 0 127 0" result="hardAlpha"/>
<feOffset dy="4"/>
<feGaussianBlur stdDeviation="10"/>
<feComposite in2="hardAlpha" operator="out"/>
<feColorMatrix type="matrix" values="0 0 0 0 0 0 0 0 0 0 0 0 0 0 0 0 0 0 0.1 0"/>
<feBlend mode="normal" in2="BackgroundImageFix" result="effect1_dropShadow_4_33"/>
<feBlend mode="normal" in="SourceGraphic" in2="effect1_dropShadow_4_33" result="shape"/>
</filter>
</defs>
</svg>
