<svg width="140" height="140" viewBox="0 0 140 140" fill="none" xmlns="http://www.w3.org/2000/svg">
<g filter="url(#filter0_d_1_64)">
<rect x="20" y="16" width="100" height="100" rx="20" fill="white"/>
</g>
<path d="M105.245 43.4483C104.482 43.0745 104.154 43.7869 103.708 44.1488C103.555 44.2655 103.426 44.4172 103.297 44.5573C102.182 45.748 100.88 46.5305 99.1784 46.4369C96.691 46.2967 94.5672 47.0792 92.6898 48.9822C92.2908 46.6355 90.965 45.2343 88.9468 44.3355C87.8909 43.8684 86.8232 43.4013 86.0838 42.3855C85.5676 41.6619 85.4268 40.8562 85.1686 40.0622C85.0043 39.5836 84.84 39.0931 84.2885 39.0113C83.6901 38.918 83.4554 39.4198 83.2208 39.8404C82.2821 41.5568 81.9184 43.4482 81.9535 45.3629C82.0356 49.6713 83.8544 53.1036 87.4682 55.5439C87.8789 55.8241 87.9845 56.1041 87.8555 56.513C87.609 57.3537 87.3156 58.1709 87.0576 59.0115C86.8932 59.5487 86.6468 59.6654 86.0719 59.4317C84.0889 58.603 82.3758 57.3769 80.8622 55.8942C78.2926 53.4073 75.9693 50.6636 73.0712 48.5153C72.3907 48.0132 71.7101 47.5464 71.006 47.1025C68.0491 44.2305 71.3933 41.8719 72.1677 41.5919C72.9772 41.3 72.4493 40.2957 69.8327 40.3076C67.2161 40.3192 64.8225 41.1949 61.7718 42.3624C61.326 42.5376 60.8565 42.6659 60.3755 42.771C57.6064 42.2457 54.7316 42.1287 51.7279 42.4675C46.0723 43.0978 41.5551 45.7716 38.2345 50.3367C34.2452 55.8241 33.3066 62.0586 34.4565 68.562C35.665 75.4153 39.1615 81.0895 44.5355 85.5264C50.109 90.1263 56.5272 92.3797 63.8489 91.9477C68.2959 91.6909 73.2474 91.0955 78.8325 86.367C80.2404 87.0676 81.7189 87.3476 84.1713 87.5577C86.0604 87.7329 87.8792 87.4644 89.2871 87.1727C91.493 86.7056 91.3405 84.6623 90.5427 84.2888C84.0775 81.2766 85.4971 82.5024 84.2065 81.51C87.4919 77.6222 92.4435 73.5823 94.3795 60.4941C94.5319 59.4551 94.4029 58.8012 94.3795 57.9606C94.3677 57.447 94.4851 57.2486 95.0718 57.19C96.691 57.0032 98.2632 56.5597 99.7065 55.7657C103.895 53.4774 105.585 49.7179 105.984 45.2112C106.043 44.5223 105.972 43.8099 105.245 43.4483ZM68.7417 84.0084C62.476 79.0816 59.4372 77.4585 58.1816 77.5286C57.0083 77.5987 57.2195 78.9414 57.4775 79.8172C57.7474 80.681 58.0995 81.2766 58.5922 82.0353C58.9324 82.5374 59.1673 83.2845 58.2521 83.8451C56.2338 85.0944 52.7255 83.4247 52.5611 83.3431C48.478 80.9378 45.0636 77.762 42.6581 73.419C40.3348 69.239 38.9856 64.7558 38.7626 59.9688C38.7039 58.8131 39.0441 58.4042 40.194 58.1943C41.7076 57.9141 43.2683 57.8555 44.7819 58.0773C51.1768 59.0115 56.621 61.8719 61.1852 66.402C63.7901 68.9822 65.7613 72.0647 67.7913 75.0768C69.9501 78.2757 72.2734 81.3232 75.2303 83.8217C76.2745 84.6973 77.1076 85.3627 77.9054 85.8533C75.5002 86.1217 71.4873 86.1803 68.7417 84.0084ZM71.7455 64.6857C71.7455 64.172 72.1562 63.7635 72.6726 63.7635C72.7899 63.7635 72.8955 63.7865 72.9894 63.8215C73.1185 63.8684 73.2359 63.9385 73.3296 64.0433C73.494 64.207 73.5878 64.4403 73.5878 64.6856C73.5878 65.1993 73.1772 65.6078 72.661 65.6078C72.1449 65.6078 71.7455 65.1995 71.7455 64.6857ZM81.0737 69.4727C80.4753 69.718 79.8769 69.9279 79.3019 69.9513C78.4102 69.998 77.4363 69.6359 76.9083 69.1923C76.087 68.5034 75.5003 68.1183 75.254 66.9157C75.1483 66.402 75.2069 65.608 75.301 65.1528C75.5121 64.172 75.2774 63.5416 74.5852 62.9694C74.0219 62.5023 73.3062 62.374 72.52 62.374C72.2266 62.374 71.957 62.2455 71.7574 62.1404C71.4288 61.977 71.1591 61.5683 71.4171 61.0663C71.4992 60.903 71.8983 60.5059 71.9922 60.4359C73.06 59.8287 74.292 60.0273 75.4301 60.4826C76.4862 60.9146 77.2841 61.7085 78.4339 62.8293C79.6072 64.1835 79.8183 64.5574 80.4872 65.573C81.0154 66.367 81.4964 67.1842 81.8249 68.1183C82.0244 68.7022 81.766 69.1808 81.0737 69.4727Z" fill="#4D6BFE"/>
<defs>
<filter id="filter0_d_1_64" x="0" y="0" width="140" height="140" filterUnits="userSpaceOnUse" color-interpolation-filters="sRGB">
<feFlood flood-opacity="0" result="BackgroundImageFix"/>
<feColorMatrix in="SourceAlpha" type="matrix" values="0 0 0 0 0 0 0 0 0 0 0 0 0 0 0 0 0 0 127 0" result="hardAlpha"/>
<feOffset dy="4"/>
<feGaussianBlur stdDeviation="10"/>
<feComposite in2="hardAlpha" operator="out"/>
<feColorMatrix type="matrix" values="0 0 0 0 0 0 0 0 0 0 0 0 0 0 0 0 0 0 0.1 0"/>
<feBlend mode="normal" in2="BackgroundImageFix" result="effect1_dropShadow_1_64"/>
<feBlend mode="normal" in="SourceGraphic" in2="effect1_dropShadow_1_64" result="shape"/>
</filter>
</defs>
</svg>
