<svg width="140" height="140" viewBox="0 0 140 140" fill="none" xmlns="http://www.w3.org/2000/svg">
<g filter="url(#filter0_d_1_52)">
<rect x="20" y="16" width="100" height="100" rx="20" fill="white"/>
</g>
<path d="M97.7496 98C100.088 98 102 96.0918 102 93.7516V50.4389C102 48.0987 100.084 46.1905 97.7496 46.1905H56.2857L72.9253 98H97.7496Z" fill="#D9D9D9"/>
<path d="M68.4762 85.8095L72.5058 98L83.7143 85.8095H68.4762Z" fill="#114BA3"/>
<path d="M97.9332 65.049V62.5012H86.0282V58.381H82.1696V62.5012H74.5714V65.049H89.6907C88.8817 67.9875 87.0926 70.7667 85.3489 72.9246C82.264 69.1476 82.25 67.9225 82.25 67.9225H79.0426C79.0426 67.9225 79.1757 69.762 83.5071 75.0026C82.0996 76.4882 81.0315 77.37 81.0315 77.37L82.0155 80.5506C82.0155 80.5506 83.5071 79.2278 85.3699 77.1893C87.7434 79.8193 90.2126 82.3559 92.772 84.7936L94.7992 82.6974C92.1689 80.271 89.6364 77.7341 87.208 75.0931C89.6204 72.1474 92.0681 68.4392 92.5863 65.0456H97.9295V65.049H97.9365H97.9332Z" fill="#4E5969"/>
<path d="M42.2468 34C39.9158 34 38 35.9155 38 38.2566V81.5635C38 83.8975 39.9158 85.8095 42.2468 85.8095H83.7143L67.0745 34H42.2468Z" fill="#3491FA"/>
<path d="M61.7224 61.0295C61.5647 63.0047 59.9304 65.9298 55.9721 65.9298C52.5422 65.9298 49.7668 63.0047 49.7668 59.4044C49.7668 55.8003 52.5457 52.8786 55.9721 52.8786C57.9215 52.8786 59.2234 53.7491 59.9688 54.4604L62.5693 51.8819C60.7805 50.1601 58.4184 49.2137 55.9721 49.2386C53.3616 49.2405 50.8585 50.3114 49.0126 52.2162C47.1667 54.1206 46.1288 56.7034 46.127 59.3972C46.1288 62.0909 47.1667 64.6734 49.0126 66.5781C50.8585 68.4829 53.3616 69.5538 55.9721 69.5556C61.6664 69.5556 65.4286 65.4352 65.4286 59.6173C65.4286 58.7867 65.3236 58.1728 65.1942 57.5482H55.9791V61.0257L61.7187 61.0329L61.7224 61.0295Z" fill="#EEEEEE"/>
<defs>
<filter id="filter0_d_1_52" x="0" y="0" width="140" height="140" filterUnits="userSpaceOnUse" color-interpolation-filters="sRGB">
<feFlood flood-opacity="0" result="BackgroundImageFix"/>
<feColorMatrix in="SourceAlpha" type="matrix" values="0 0 0 0 0 0 0 0 0 0 0 0 0 0 0 0 0 0 127 0" result="hardAlpha"/>
<feOffset dy="4"/>
<feGaussianBlur stdDeviation="10"/>
<feComposite in2="hardAlpha" operator="out"/>
<feColorMatrix type="matrix" values="0 0 0 0 0 0 0 0 0 0 0 0 0 0 0 0 0 0 0.1 0"/>
<feBlend mode="normal" in2="BackgroundImageFix" result="effect1_dropShadow_1_52"/>
<feBlend mode="normal" in="SourceGraphic" in2="effect1_dropShadow_1_52" result="shape"/>
</filter>
</defs>
</svg>
