<svg width="140" height="140" viewBox="0 0 140 140" fill="none" xmlns="http://www.w3.org/2000/svg">
<g filter="url(#filter0_d_1_60)">
<rect x="20" y="16" width="100" height="100" rx="20" fill="white"/>
</g>
<path d="M53.7554 30.0202C53.0892 30.1288 52.2898 30.4803 51.7262 30.9146C50.0198 32.2224 48.6978 34.9984 48.1392 38.4568C47.9291 39.7647 47.7857 41.5792 47.7857 42.9646C47.7857 44.5982 47.9753 46.6866 48.2469 48.1289C48.3083 48.4494 48.3391 48.7338 48.3135 48.7544C48.293 48.7751 48.0419 48.9819 47.76 49.2093C46.7967 49.9847 45.695 51.1789 44.9366 52.2697C43.4813 54.353 42.5385 56.7206 42.1439 59.2846C41.9902 60.2979 41.9492 62.345 42.0721 63.3582C42.3437 65.6948 43.0406 67.6695 44.2346 69.4789L44.624 70.063L44.5113 70.2543C43.7119 71.6087 43.0304 73.5679 42.7127 75.4496C42.4616 76.9384 42.4308 77.3364 42.4308 79.3318C42.4308 81.3428 42.4565 81.7409 42.6922 83.1315C42.974 84.7961 43.5479 86.5588 44.1885 87.7323C44.3986 88.1148 44.911 88.9109 44.9725 88.9523C44.993 88.9626 44.9315 89.1539 44.8341 89.3762C44.0962 91.0046 43.4659 93.1705 43.2046 94.9954C43.0201 96.2464 42.9945 96.6496 42.9945 97.9679C42.9945 99.6479 43.0867 100.465 43.4352 101.804L43.4864 102H45.6796H47.8779L47.7344 101.726C46.8479 100.072 46.766 97.0011 47.5295 93.9357C47.8779 92.5192 48.2725 91.4802 49.0104 90.0482L49.451 89.1797V88.6473C49.451 88.151 49.4408 88.0942 49.2819 87.7685C49.159 87.5203 48.995 87.3084 48.7029 87.0189C48.2059 86.533 47.8472 86.0212 47.5602 85.3905C46.2996 82.63 46.0537 78.5306 46.9402 75.036C47.3091 73.5782 47.9189 72.2807 48.5594 71.5725C48.995 71.0865 49.2205 70.5438 49.2205 69.9803C49.2205 69.3962 49.0155 68.9154 48.5543 68.414C47.2322 66.9872 46.4175 65.2502 46.1254 63.229C45.7104 60.3496 46.4636 57.2117 48.1751 54.7252C49.8507 52.2851 52.2027 50.7188 54.8315 50.3001C55.4208 50.2019 56.5225 50.2174 57.1374 50.3311C57.8087 50.45 58.2288 50.4138 58.6593 50.207C59.1922 49.9538 59.4587 49.6384 59.7713 48.9147C60.0479 48.2685 60.2632 47.917 60.8422 47.1881C61.5391 46.3144 62.2104 45.7199 63.2864 45.0014C64.5163 44.1898 65.9152 43.6005 67.309 43.3161C67.8163 43.2127 68.052 43.1972 69 43.1972C69.948 43.1972 70.1837 43.2127 70.691 43.3161C72.7355 43.7349 74.7648 44.7998 76.384 46.3092C76.7324 46.6349 77.5677 47.6792 77.8342 48.1134C77.9367 48.284 78.116 48.6459 78.2287 48.9147C78.5413 49.6384 78.8078 49.9538 79.3407 50.207C79.7558 50.4086 80.1913 50.45 80.8369 50.3414C81.8567 50.1657 82.6407 50.1812 83.6399 50.388C87.0424 51.0807 90.0042 53.9084 91.316 57.6976C92.4587 61.0216 92.1359 64.5007 90.4346 67.1577C90.1477 67.6075 89.8607 67.9694 89.4457 68.414C88.5489 69.3806 88.5489 70.58 89.4406 71.5725C90.9061 73.1906 91.8233 77.1711 91.5466 80.6811C91.3622 82.9971 90.7729 85.07 89.9632 86.2435C89.8197 86.4503 89.5226 86.8017 89.2971 87.0189C89.005 87.3084 88.8411 87.5203 88.718 87.7685C88.5592 88.0942 88.5489 88.151 88.5489 88.6473V89.1797L88.9896 90.0482C89.7275 91.4802 90.1221 92.5192 90.4705 93.9357C91.2238 96.9598 91.1572 99.9684 90.2963 101.68C90.2246 101.824 90.1631 101.959 90.1631 101.974C90.1631 101.99 91.1418 102 92.3409 102H94.5136L94.5699 101.778C94.6007 101.659 94.6519 101.478 94.6775 101.375C94.7339 101.147 94.8466 100.475 94.9389 99.8289C95.026 99.1775 95.026 96.7788 94.9389 96.0551C94.611 93.429 94.0626 91.3457 93.1659 89.3762C93.0685 89.1539 93.007 88.9626 93.0275 88.9523C93.0531 88.9368 93.1966 88.73 93.3503 88.4974C94.4674 86.7915 95.154 84.6461 95.5025 81.8132C95.5947 81.0326 95.5947 77.6776 95.5025 76.928C95.2565 74.9947 94.9594 73.6816 94.4674 72.3531C94.2625 71.8 93.7193 70.6317 93.4887 70.2543L93.376 70.063L93.7654 69.4789C94.9594 67.6695 95.6563 65.6948 95.9279 63.3582C96.0508 62.345 96.0099 60.2979 95.8561 59.2846C95.4564 56.7154 94.5187 54.3581 93.0634 52.2697C92.305 51.1789 91.2033 49.9847 90.24 49.2093C89.9581 48.9819 89.707 48.7751 89.6865 48.7544C89.6609 48.7338 89.6917 48.4494 89.7531 48.1289C90.3732 44.8669 90.3526 40.7986 89.7019 37.6194C89.1382 34.8485 88.1134 32.6463 86.7913 31.3746C85.7357 30.3614 84.6597 29.9272 83.3683 30.0099C80.4065 30.1857 78.0187 33.6234 77.0757 39.041C76.922 39.9146 76.7889 40.9382 76.7889 41.2173C76.7889 41.3259 76.7683 41.4137 76.7427 41.4137C76.7171 41.4137 76.5173 41.3103 76.302 41.1812C74.0166 39.8164 71.475 39.0875 69 39.0875C66.525 39.0875 63.9833 39.8164 61.698 41.1812C61.4827 41.3103 61.2829 41.4137 61.2573 41.4137C61.2317 41.4137 61.2111 41.3259 61.2111 41.2173C61.2111 40.9278 61.0728 39.8733 60.9242 39.041C60.0684 34.1765 58.1059 30.9559 55.4977 30.1443C55.139 30.0357 54.1192 29.9634 53.7554 30.0202ZM54.6266 34.2282C55.3644 34.8175 56.1843 36.5028 56.6557 38.3896C56.7428 38.7308 56.835 39.1237 56.8607 39.2684C56.8812 39.408 56.9375 39.7233 56.9837 39.9663C57.1835 41.0622 57.2757 42.2461 57.286 43.6883L57.2911 45.11L56.9375 45.6372L56.584 46.1697H55.759C54.7957 46.1697 53.8374 46.2938 52.9201 46.5419C52.5922 46.6246 52.2745 46.7073 52.213 46.7229C52.1156 46.7435 52.1003 46.7125 52.0439 46.2886C51.7416 43.9881 51.7569 41.4396 52.0901 39.3201C52.4589 36.9577 53.3199 34.8175 54.1602 34.1868C54.3601 34.0369 54.3959 34.0421 54.6266 34.2282ZM83.8449 34.192C84.3522 34.5694 84.9108 35.5723 85.3258 36.8543C86.161 39.4183 86.3968 42.9387 85.9561 46.2886C85.8997 46.7125 85.8844 46.7435 85.787 46.7229C85.7255 46.7073 85.4078 46.6246 85.0799 46.5419C84.1626 46.2938 83.2043 46.1697 82.241 46.1697H81.416L81.0625 45.6372L80.7089 45.11L80.714 43.6883C80.7243 41.6826 80.9087 40.1162 81.3494 38.3741C81.8157 36.5028 82.6407 34.8175 83.3734 34.2282C83.6041 34.0421 83.6399 34.0369 83.8449 34.192Z" fill="black"/>
<path d="M65.294 56.8468C64.3055 56.9433 64.0368 56.98 63.5631 57.0766C62.7933 57.2373 61.7639 57.5957 61.0488 57.9494C58.5619 59.176 56.8492 61.2203 56.3254 63.5862C56.2206 64.0548 56.207 64.211 56.207 65.0012C56.207 65.7821 56.2206 65.9521 56.3209 66.3977C57.0178 69.4895 59.8417 71.7727 63.4948 72.1908C64.2873 72.2781 67.7126 72.2781 68.5051 72.1908C71.4385 71.8554 73.9619 70.2521 75.0961 68.001C75.3966 67.3992 75.5424 67.0087 75.6791 66.3977C75.7793 65.9521 75.793 65.7821 75.793 65.0012C75.793 64.211 75.7793 64.0548 75.6745 63.5862C74.9138 60.1499 71.607 57.4441 67.5532 56.9295C67.0248 56.8652 65.6401 56.8101 65.294 56.8468ZM66.9974 59.3459C68.3503 59.493 69.7122 59.98 70.8053 60.715C71.3929 61.1101 72.2219 61.937 72.5772 62.4791C73.0145 63.1498 73.2649 63.8343 73.3788 64.6658C73.4289 65.0471 73.4017 65.3365 73.2649 65.9521C73.0509 66.8709 72.3859 67.831 71.4886 68.5018C71.0695 68.8096 70.1995 69.2552 69.6666 69.4298C68.6554 69.7559 67.995 69.8156 65.6355 69.7973C64.096 69.7835 63.8227 69.7697 63.3809 69.687C61.8733 69.4022 60.6799 68.7958 59.8145 67.8724C59.113 67.1282 58.7941 66.4483 58.6211 65.3503C58.5436 64.8404 58.6894 63.9951 58.9855 63.283C59.3453 62.4147 60.2745 61.3352 61.1946 60.715C62.2604 59.9983 63.6633 59.4884 64.9523 59.3506C65.4488 59.2954 66.5009 59.2954 66.9974 59.3459Z" fill="black"/>
<path d="M64.2601 62.6997C63.9139 62.888 63.6725 63.3657 63.7454 63.7195C63.8274 64.1008 64.1599 64.4867 64.6791 64.8037C64.957 64.9737 64.9752 64.9966 64.9889 65.1666C64.9979 65.2677 64.9615 65.5571 64.9115 65.8144C64.8568 66.067 64.8158 66.3335 64.8158 66.407C64.8204 66.6046 65.0026 66.9261 65.1938 67.0823C65.3624 67.2201 65.3943 67.2247 65.868 67.2385C66.3007 67.2523 66.3918 67.2431 66.5649 67.1604C67.0113 66.9398 67.1251 66.5356 66.9611 65.7592C66.8245 65.1115 66.8518 65.0104 67.1935 64.8129C67.5532 64.6015 67.9359 64.2294 68.0497 63.9767C68.2684 63.4944 68.0679 62.9477 67.5851 62.695C67.4668 62.6353 67.321 62.6078 67.1069 62.6078C66.7744 62.6078 66.5603 62.6859 66.1686 62.9385L65.9454 63.081L65.8042 62.9936C65.2258 62.6491 65.121 62.6078 64.7702 62.6123C64.5197 62.6123 64.3831 62.6353 64.2601 62.6997Z" fill="black"/>
<path d="M53.2008 57.366C52.3946 57.6233 51.7933 58.2205 51.4836 59.0704C51.3333 59.4747 51.2604 60.1133 51.3242 60.4578C51.4745 61.2801 52.144 62.0289 52.9048 62.2357C53.8613 62.4883 54.5764 62.3229 55.2095 61.689C55.5784 61.326 55.7789 61.009 55.9793 60.4945C56.125 60.1316 56.1341 60.0673 56.1341 59.5528L56.1387 59.0015L55.9474 58.6064C55.6422 57.9816 55.0911 57.5176 54.4534 57.3476C54.0935 57.2558 53.5151 57.2604 53.2008 57.366Z" fill="black"/>
<path d="M77.5284 57.3523C76.9044 57.5222 76.3487 57.9908 76.0526 58.6064L75.8613 59.0015L75.8659 59.5528C75.8659 60.0673 75.875 60.1316 76.0207 60.4945C76.2212 61.009 76.4216 61.3261 76.7905 61.689C77.4236 62.3229 78.1387 62.4883 79.0953 62.2357C79.6464 62.0887 80.1975 61.62 80.4617 61.0733C80.6895 60.6094 80.7441 60.274 80.6713 59.7457C80.5028 58.5375 79.8013 57.6601 78.7582 57.3523C78.453 57.2604 77.8609 57.2604 77.5284 57.3523Z" fill="black"/>
<defs>
<filter id="filter0_d_1_60" x="0" y="0" width="140" height="140" filterUnits="userSpaceOnUse" color-interpolation-filters="sRGB">
<feFlood flood-opacity="0" result="BackgroundImageFix"/>
<feColorMatrix in="SourceAlpha" type="matrix" values="0 0 0 0 0 0 0 0 0 0 0 0 0 0 0 0 0 0 127 0" result="hardAlpha"/>
<feOffset dy="4"/>
<feGaussianBlur stdDeviation="10"/>
<feComposite in2="hardAlpha" operator="out"/>
<feColorMatrix type="matrix" values="0 0 0 0 0 0 0 0 0 0 0 0 0 0 0 0 0 0 0.1 0"/>
<feBlend mode="normal" in2="BackgroundImageFix" result="effect1_dropShadow_1_60"/>
<feBlend mode="normal" in="SourceGraphic" in2="effect1_dropShadow_1_60" result="shape"/>
</filter>
</defs>
</svg>
