<svg width="140" height="140" viewBox="0 0 140 140" fill="none" xmlns="http://www.w3.org/2000/svg">
<g filter="url(#filter0_d_1_2)">
<rect x="20" y="16" width="100" height="100" rx="20" fill="#FDFDFD"/>
<path d="M61.6152 56.2079V49.3679C61.6152 48.7918 61.8294 48.3596 62.3287 48.0719L75.9583 40.152C77.8137 39.0721 80.0258 38.5683 82.3088 38.5683C90.8718 38.5683 96.2952 45.2645 96.2952 52.3922C96.2952 52.896 96.2952 53.4721 96.2235 54.0482L82.0948 45.696C81.2387 45.1922 80.3821 45.1922 79.5258 45.696L61.6152 56.2079ZM93.4407 82.8484V66.5038C93.4407 65.4955 93.0121 64.7756 92.156 64.2717L74.2455 53.7598L80.0968 50.3756C80.5961 50.0879 81.0246 50.0879 81.5239 50.3756L95.1534 58.2955C99.0785 60.5998 101.718 65.4955 101.718 70.2473C101.718 75.7191 98.5076 80.7592 93.4407 82.8474V82.8484ZM57.4052 68.4482L51.5539 64.9924C51.0545 64.7047 50.8404 64.2724 50.8404 63.6964V47.8565C50.8404 40.1527 56.6916 34.3203 64.6125 34.3203C67.6097 34.3203 70.3921 35.3286 72.7475 37.1284L58.6903 45.3367C57.8342 45.8406 57.4058 46.5605 57.4058 47.5688V68.4489L57.4052 68.4482ZM69.9999 75.792L61.6152 71.0402V60.9605L69.9999 56.2087L78.3839 60.9605V71.0402L69.9999 75.792ZM75.3873 97.6804C72.3901 97.6804 69.6077 96.672 67.2523 94.8725L81.3094 86.6638C82.1655 86.16 82.594 85.4403 82.594 84.4319V63.5518L88.5171 67.0076C89.0163 67.2953 89.2303 67.7276 89.2303 68.3037V84.1436C89.2303 91.8472 83.3073 97.6804 75.3873 97.6804ZM58.4754 81.6245L44.8458 73.7045C40.9208 71.4002 38.281 66.5045 38.281 61.7527C38.281 56.2086 41.5634 51.2407 46.6296 49.1525V65.5685C46.6296 66.5767 47.0579 67.2967 47.914 67.8005L65.7537 78.24L59.9024 81.6245C59.4031 81.9122 58.9747 81.9122 58.4754 81.6245ZM57.6909 93.4326C49.6275 93.4326 43.7046 87.3121 43.7046 79.7522C43.7046 79.1762 43.7762 78.6001 43.8472 78.0241L57.9044 86.2323C58.7605 86.7361 59.6173 86.7361 60.4734 86.2323L78.3839 75.7927V82.6329C78.3839 83.2089 78.1698 83.6408 77.6704 83.9286L64.0409 91.8486C62.1855 92.9284 59.9733 93.4326 57.6903 93.4326H57.6909ZM75.3873 102C84.0215 102 91.2283 95.8081 92.8702 87.5999C100.862 85.5117 106 77.9518 106 70.248C106 65.2078 103.859 60.3121 100.006 56.784C100.363 55.2719 100.577 53.7598 100.577 52.2483C100.577 41.9525 92.2993 34.248 82.7373 34.248C80.8111 34.248 78.9556 34.5357 77.1002 35.1841C73.8887 32.0159 69.4644 30 64.6125 30C55.9781 30 48.7714 36.1917 47.1296 44.4C39.1378 46.4882 34 54.0482 34 61.752C34 66.7922 36.1405 71.6878 39.9939 75.2159C39.6371 76.728 39.4229 78.24 39.4229 79.7517C39.4229 90.0472 47.7005 97.7518 57.2626 97.7518C59.1889 97.7518 61.0443 97.4644 62.8997 96.8161C66.1104 99.9841 70.5347 102 75.3873 102Z" fill="black"/>
</g>
<defs>
<filter id="filter0_d_1_2" x="0" y="0" width="140" height="140" filterUnits="userSpaceOnUse" color-interpolation-filters="sRGB">
<feFlood flood-opacity="0" result="BackgroundImageFix"/>
<feColorMatrix in="SourceAlpha" type="matrix" values="0 0 0 0 0 0 0 0 0 0 0 0 0 0 0 0 0 0 127 0" result="hardAlpha"/>
<feOffset dy="4"/>
<feGaussianBlur stdDeviation="10"/>
<feComposite in2="hardAlpha" operator="out"/>
<feColorMatrix type="matrix" values="0 0 0 0 0 0 0 0 0 0 0 0 0 0 0 0 0 0 0.1 0"/>
<feBlend mode="normal" in2="BackgroundImageFix" result="effect1_dropShadow_1_2"/>
<feBlend mode="normal" in="SourceGraphic" in2="effect1_dropShadow_1_2" result="shape"/>
</filter>
</defs>
</svg>
